PathFileType	4	(X/Y/Z)	/Users/itak/Documents/Research/Walk-IL/dataset/trc/00063_00006.trc
DataRate	CameraRate	NumFrames	NumMarkers	Units	OrigDataRate	OrigDataStartFrame	OrigNumFrames
100.000000	100.000000	4	53	mm	100.000000	87	697
Frame#	Time	RPSI			LPSI			L3			STRN			T10			C7			CLAV			RBAK			LBAK			LSHO			LUPA			LAEL			LAOL			LWTS			LWPS			LFRA			LIFD			LHPS			LHTS			RSHO			RUPA			RAEL			RAOL			RWTS			RWPS			RFRA			RIFD			RHTS			RHPS			RBHD			LFHD			RFHD			LBHD			LHIP			RHIP			RASI			LASI			LKNE			LTHI			LANK			LTIP			LTOE			LMT1			LMT5			LHEE			RKNE			RTHI			RANK			RTIP			RTOE			RMT1			RMT5			RHEE			
		X1	Y1	Z1	X2	Y2	Z2	X3	Y3	Z3	X4	Y4	Z4	X5	Y5	Z5	X6	Y6	Z6	X7	Y7	Z7	X8	Y8	Z8	X9	Y9	Z9	X10	Y10	Z10	X11	Y11	Z11	X12	Y12	Z12	X13	Y13	Z13	X14	Y14	Z14	X15	Y15	Z15	X16	Y16	Z16	X17	Y17	Z17	X18	Y18	Z18	X19	Y19	Z19	X20	Y20	Z20	X21	Y21	Z21	X22	Y22	Z22	X23	Y23	Z23	X24	Y24	Z24	X25	Y25	Z25	X26	Y26	Z26	X27	Y27	Z27	X28	Y28	Z28	X29	Y29	Z29	X30	Y30	Z30	X31	Y31	Z31	X32	Y32	Z32	X33	Y33	Z33	X34	Y34	Z34	X35	Y35	Z35	X36	Y36	Z36	X37	Y37	Z37	X38	Y38	Z38	X39	Y39	Z39	X40	Y40	Z40	X41	Y41	Z41	X42	Y42	Z42	X43	Y43	Z43	X44	Y44	Z44	X45	Y45	Z45	X46	Y46	Z46	X47	Y47	Z47	X48	Y48	Z48	X49	Y49	Z49	X50	Y50	Z50	X51	Y51	Z51	X52	Y52	Z52	X53	Y53	Z53	

88	0.87	-62.20472717285156	1036.216674804688	1296.965087890625	-90.08104705810547	1032.242553710938	1123.972412109375	-72.20199584960938	1081.717163085938	1201.873657226562	169.4693908691406	1287.140747070312	1182.47802734375	-95.83689880371094	1214.2158203125	1196.450317382812	-46.13302612304688	1483.244140625	1190.158569335938	135.5834350585938	1400.553955078125	1182.644165039062	-98.39462280273438	1342.033813476562	1268.234985351562	-71.73388671875	1445.303833007812	1089.96826171875	28.49598121643066	1452.008422851562	1012.086975097656	14.43874168395996	1324.095458984375	935.1929931640625	45.32556915283203	1108.41650390625	919.1898803710938	-18.60353469848633	1093.025024414062	1003.397705078125	140.3670501708984	871.5038452148438	989.9142456054688	86.01052856445312	859.1587524414062	926.6660766601562	70.41952514648438	1000.024841308594	914.1707153320312	151.5546569824219	686.8270263671875	1015.893920898438	118.9255752563477	777.5419921875	935.5516357421875	162.9993896484375	788.628173828125	990.5504150390625	28.91983413696289	1449.088745117188	1362.49462890625	22.97376251220703	1379.0927734375	1426.18115234375	2.325976133346558	1112.596557617188	1452.234008789062	14.20341205596924	1093.683349609375	1354.8681640625	146.7274780273438	864.5323486328125	1400.952514648438	79.44611358642578	847.0678100585938	1453.777465820312	17.69341659545898	1032.687255859375	1456.512817382812	144.8081512451172	674.3926391601562	1374.655517578125	166.8318939208984	759.7193603515625	1395.50927734375	112.5666275024414	756.8926391601562	1450.190795898438	-6.697603225708008	1670.836669921875	1127.521118164062	170.4976654052734	1694.865966796875	1247.990600585938	169.2122344970703	1698.810424804688	1121.651245117188	3.125638484954834	1658.843383789062	1264.622680664062	1.872019171714783	964.0791625976562	1023.877319335938	8.31981086730957	965.7158203125	1369.662841796875	132.0161895751953	979.1282958984375	1336.583740234375	118.6279296875	969.6680908203125	1065.815551757812	17.71730995178223	499.0667724609375	1064.677368164062	1.072453737258911	642.7828369140625	1030.839477539062	-86.50364685058594	51.81698989868164	1053.63134765625	-45.53076171875	269.0960388183594	1045.804077148438	119.3443908691406	43.48585510253906	1041.275512695312	74.12837982177734	43.45709228515625	1098.42236328125	12.07486343383789	42.40474319458008	1005.439270019531	-133.4677429199219	48.62311935424805	1132.921264648438	65.48203277587891	517.7753295898438	1337.974487304688	86.80104827880859	787.7402954101562	1368.439086914062	-54.81375885009766	45.55165481567383	1338.303833007812	37.59742736816406	396.0567016601562	1343.662841796875	159.4156036376953	42.30148696899414	1291.254638671875	97.88075256347656	48.48004913330078	1253.959594726562	71.01654815673828	48.73548126220703	1348.480224609375	-103.7141952514648	47.77013778686523	1282.96923828125	
89	0.88	-61.26047134399414	1036.365112304688	1297.534790039062	-89.30580139160156	1032.39111328125	1124.535400390625	-71.21620178222656	1081.741821289062	1202.360229492188	170.3530426025391	1287.116577148438	1183.069213867188	-94.93046569824219	1214.103393554688	1196.877563476562	-45.26638031005859	1483.192504882812	1190.731567382812	136.4384765625	1400.521118164062	1183.292724609375	-97.54781341552734	1341.905395507812	1268.692993164062	-70.81433868408203	1445.310913085938	1090.531494140625	29.47489547729492	1452.087280273438	1012.68896484375	15.37348079681396	1324.254638671875	935.685546875	46.05802917480469	1108.607055664062	919.4580078125	-17.89032936096191	1093.167236328125	1003.676574707031	140.6285705566406	871.3413696289062	989.6616821289062	86.32905578613281	859.2914428710938	926.3857421875	70.94199371337891	1000.190246582031	914.218994140625	151.3722839355469	686.5492553710938	1015.213195800781	119.0549087524414	777.573486328125	935.0908203125	163.1651763916016	788.4424438476562	990.0929565429688	29.65331268310547	1448.939697265625	1363.098754882812	23.63466644287109	1378.934936523438	1426.720458984375	2.687376737594604	1112.515625	1452.838989257812	14.70341396331787	1093.610961914062	1355.523071289062	147.2372131347656	864.484130859375	1401.4609375	79.92449951171875	846.9488525390625	1454.274780273438	18.04153060913086	1032.55322265625	1457.198852539062	145.3051452636719	674.3528442382812	1374.911499023438	167.3080444335938	759.6425170898438	1395.887084960938	113.1818618774414	756.7728271484375	1450.528564453125	-5.868322849273682	1670.798828125	1128.36669921875	171.6497955322266	1694.814819335938	1248.357055664062	170.0641784667969	1698.660522460938	1122.035888671875	4.322311878204346	1658.890869140625	1265.420288085938	2.453408718109131	964.1229248046875	1024.346557617188	9.214450836181641	965.8710327148438	1370.198608398438	132.9900817871094	979.0642700195312	1336.92822265625	119.3020248413086	969.6373291015625	1066.169311523438	17.95631217956543	499.1776428222656	1064.987670898438	1.292933702468872	642.8349609375	1031.236572265625	-86.46746063232422	51.89268112182617	1053.67724609375	-45.34173583984375	269.1596069335938	1046.030029296875	119.4162979125977	43.43293380737305	1041.3046875	74.16270446777344	43.45587921142578	1098.426025390625	12.09243011474609	42.4173469543457	1005.443908691406	-133.4351043701172	48.66027069091797	1132.9619140625	65.11271667480469	517.7694702148438	1338.525390625	88.23149871826172	787.1868286132812	1368.343505859375	-54.81061172485352	45.36632919311523	1338.51708984375	37.42319869995117	396.0678405761719	1344.133666992188	159.3985900878906	42.29424667358398	1291.25634765625	97.83150482177734	48.53787994384766	1254.096557617188	71.00530242919922	48.67206954956055	1348.612426757812	-103.8091735839844	47.70927429199219	1283.171020507812	
90	0.89	-60.30395126342773	1036.5224609375	1298.170532226562	-88.52155303955078	1032.5693359375	1125.16357421875	-70.22966766357422	1081.781494140625	1202.914794921875	171.2559356689453	1287.077758789062	1183.67529296875	-93.94766235351562	1213.98291015625	1197.318725585938	-44.35537719726562	1483.146240234375	1191.314453125	137.3383331298828	1400.47998046875	1183.953247070312	-96.66474151611328	1341.789428710938	1269.1748046875	-69.85155487060547	1445.332397460938	1091.106079101562	30.48973655700684	1452.184448242188	1013.303649902344	16.36148643493652	1324.417724609375	936.2068481445312	46.85557556152344	1108.814575195312	919.7711181640625	-17.11932754516602	1093.317749023438	1004.001647949219	140.9523468017578	871.1771240234375	989.3988647460938	86.70198822021484	859.4491577148438	926.099365234375	71.53032684326172	1000.378967285156	914.2915649414062	151.2222900390625	686.2500610351562	1014.463134765625	119.224006652832	777.6248779296875	934.5929565429688	163.3439788818359	788.239990234375	989.61669921875	30.42238616943359	1448.783813476562	1363.720581054688	24.35860443115234	1378.78955078125	1427.279418945312	3.087729454040527	1112.458862304688	1453.479614257812	15.27239227294922	1093.536743164062	1356.2041015625	147.7784576416016	864.4412841796875	1402.022827148438	80.43180084228516	846.849853515625	1454.838012695312	18.42063331604004	1032.41943359375	1457.922973632812	145.8265991210938	674.3092651367188	1375.227416992188	167.8247833251953	759.5592651367188	1396.365844726562	113.8013153076172	756.6854248046875	1450.93603515625	-5.00093412399292	1670.765869140625	1129.254150390625	172.8473052978516	1694.74951171875	1248.755981445312	170.9543762207031	1698.503173828125	1122.452270507812	5.575345993041992	1658.942016601562	1266.250366210938	3.001525640487671	964.18505859375	1024.869995117188	10.14095878601074	966.0103149414062	1370.78125	133.9838104248047	978.9548950195312	1337.291625976562	119.992301940918	969.6026000976562	1066.548217773438	18.24082565307617	499.2868957519531	1065.235961914062	1.527848124504089	642.8934326171875	1031.58251953125	-86.43476867675781	51.95479202270508	1053.69873046875	-45.11847686767578	269.2090759277344	1046.230346679688	119.4648208618164	43.39772033691406	1041.319091796875	74.18426513671875	43.46119689941406	1098.422119140625	12.09863948822021	42.42594528198242	1005.436218261719	-133.4100341796875	48.69195938110352	1132.984497070312	64.80207824707031	517.7365112304688	1339.060546875	89.46759796142578	786.7213745117188	1368.401123046875	-54.81960296630859	45.15945816040039	1338.7412109375	37.30577087402344	396.0391235351562	1344.605712890625	159.3804016113281	42.30568695068359	1291.259399414062	97.76836395263672	48.59241104125977	1254.241455078125	70.98021697998047	48.60931396484375	1348.742065429688	-103.9196319580078	47.63129043579102	1283.384765625	
91	0.9	-59.34751510620117	1036.671997070312	1298.864624023438	-87.72679901123047	1032.756958007812	1125.855102539062	-69.26055908203125	1081.833129882812	1203.535522460938	172.1878967285156	1287.0205078125	1184.294799804688	-92.89643096923828	1213.864501953125	1197.77685546875	-43.39871978759766	1483.10546875	1191.909057617188	138.2870941162109	1400.42724609375	1184.622802734375	-95.74605560302734	1341.691284179688	1269.67919921875	-68.84493255615234	1445.370727539062	1091.689697265625	31.54317474365234	1452.29296875	1013.930603027344	17.40030860900879	1324.580200195312	936.7590942382812	47.70757293701172	1109.033935546875	920.1215209960938	-16.27481460571289	1093.470947265625	1004.379455566406	141.3517608642578	871.0164184570312	989.1248168945312	87.12354278564453	859.6263427734375	925.8115844726562	72.18156433105469	1000.586486816406	914.3864135742188	151.1242828369141	685.9427490234375	1013.656860351562	119.4371719360352	777.69482421875	934.0653686523438	163.5490417480469	788.0245971679688	989.1240844726562	31.23771667480469	1448.623291015625	1364.3564453125	25.1455078125	1378.656372070312	1427.85888671875	3.5373854637146	1112.41845703125	1454.166381835938	15.91074848175049	1093.455810546875	1356.908325195312	148.3455200195312	864.4010009765625	1402.639404296875	80.96896362304688	846.769775390625	1455.464111328125	18.8373966217041	1032.286987304688	1458.68212890625	146.3914794921875	674.2647094726562	1375.6201171875	168.3822784423828	759.4818115234375	1396.956298828125	114.423713684082	756.6158447265625	1451.416870117188	-4.091248512268066	1670.737548828125	1130.178466796875	174.0943145751953	1694.668334960938	1249.186645507812	171.8860931396484	1698.342529296875	1122.896606445312	6.879380226135254	1658.992309570312	1267.11328125	3.532805681228638	964.2576293945312	1025.445556640625	11.08125686645508	966.1141967773438	1371.415405273438	134.9635925292969	978.7991333007812	1337.695190429688	120.7031631469727	969.560791015625	1066.9716796875	18.57258796691895	499.381591796875	1065.430053710938	1.797777056694031	642.9547729492188	1031.886962890625	-86.40557861328125	52.00382232666016	1053.701049804688	-44.87681579589844	269.2494506835938	1046.406005859375	119.4908752441406	43.37612533569336	1041.319213867188	74.19573974609375	43.46969604492188	1098.412231445312	12.09670448303223	42.43049621582031	1005.41943359375	-133.3907165527344	48.71968841552734	1132.991821289062	64.61829376220703	517.66259765625	1339.5439453125	90.45951080322266	786.3756713867188	1368.637451171875	-54.84224319458008	44.95318603515625	1338.95068359375	37.2739372253418	395.9620666503906	1345.049926757812	159.3641815185547	42.32927703857422	1291.262329101562	97.70040130615234	48.63576507568359	1254.374389648438	70.94676208496094	48.55116271972656	1348.855834960938	-104.0349273681641	47.54487991333008	1283.587036132812	
